<svg xmlns="http://www.w3.org/2000/svg" viewBox="0 0 928 232"><defs><style>.cls-1{fill:#fff;}</style></defs><title>ValenceLogo</title><g id="Layer_5" data-name="Layer 5"><path class="cls-1" d="M221.55,172.8a93.09,93.09,0,0,0,.92-114.27A12.29,12.29,0,0,0,206.1,41.94a93.1,93.1,0,0,0-114.77-.25A12.29,12.29,0,0,0,75.17,57.85a93.1,93.1,0,0,0-.65,113.6,12.29,12.29,0,0,0,16.17,16.5,93.09,93.09,0,0,0,114.6.9,12.29,12.29,0,0,0,16.27-16.06ZM97.11,181.08a12.29,12.29,0,0,0-15.6-15.92A83.55,83.55,0,0,1,82,64.41,12.29,12.29,0,0,0,97.89,48.47a83.54,83.54,0,0,1,102,.51,12.29,12.29,0,0,0,15.46,15.67,83.54,83.54,0,0,1-.53,101.55,12.29,12.29,0,0,0-16,15.83,83.55,83.55,0,0,1-101.66-.95Z"/><path class="cls-1" d="M141.7,169.09a7.36,7.36,0,0,0,5.72,3.07h.25a7.83,7.83,0,0,0,7.61-5.71c.06-.19.11-.38.18-.57L191.69,65.69h-14L147.86,150,118,65.69H103.67L141.1,167.94A4.85,4.85,0,0,0,141.7,169.09Z"/><path class="cls-1" d="M275.06,146.11H333.6l10.73,26.16H350l-41.22-109q-1.69-4.7-5.08-4.71t-5.08,4.71l-39.34,109h5.65Zm28.23-79.62,28.61,74.35H277.13Z"/><path class="cls-1" d="M384.5,172.27H438v-4.71h-51v-109h-6.4v108.6a5.48,5.48,0,0,0,1.22,3.58A3.49,3.49,0,0,0,384.5,172.27Z"/><path class="cls-1" d="M471.81,172l55,.19v-4.52l-51.38-.19v-55h48.75v-5.08H475.38V63.76h51.38V58.68H472.56q-1.51,0-3,2.26a7.33,7.33,0,0,1-.75,2.82l.38,104.65Z"/><path class="cls-1" d="M566.1,68.65l73,104.46q3.57,0,4.52-.94l.94-3.2V58.68h-6v103.9L568.73,61.31q-.94-3.57-6.59-3.58a11.57,11.57,0,0,0-1.88,2.82V172.18h5.83Z"/><path class="cls-1" d="M689.18,156.46q12,10.54,23.25,13.18t31.34,2.64v-4.71l-12-.38a56.12,56.12,0,0,1-39.15-15.34q-16.75-15.34-16.75-36,0-24.28,18.45-38.4t49.5-14.12V58.58l-17.13.19q-22.4,0-39.34,17.13t-16.94,39.71Q670.36,139.9,689.18,156.46Z"/><path class="cls-1" d="M785.73,172l55,.19v-4.52l-51.38-.19v-55h48.75v-5.08H789.31V63.76h51.38V58.68H786.48q-1.51,0-3,2.26a7.33,7.33,0,0,1-.75,2.82l.38,104.65Z"/></g></svg>
