<svg xmlns="http://www.w3.org/2000/svg" viewBox="0 0 5060.18 726"><defs><style>.cls-1,.cls-4{fill:none;stroke-width:22px;}.cls-1,.cls-2{stroke:#853963;}.cls-1,.cls-2,.cls-4,.cls-5{stroke-miterlimit:10;}.cls-2,.cls-3{fill:#853963;}.cls-2,.cls-5{stroke-width:28px;}.cls-4,.cls-5{stroke:#fff;}.cls-5,.cls-6{fill:#fff;}</style></defs><title>ValenceLogo</title><g id="Banner"><circle id="Ring" class="cls-1" cx="1407.5" cy="250.5" r="208.5"/><circle id="Electron_Top_Left" data-name="Electron Top Left" class="cls-2" cx="1261" cy="104" r="15"/><circle id="Electron_Bottom_Left" data-name="Electron Bottom Left" class="cls-2" cx="1259" cy="396" r="15"/><circle id="Electron_Bottom_Right" data-name="Electron Bottom Right" class="cls-2" cx="1553" cy="398" r="15"/><circle id="Electron_Top_Right" data-name="Electron Top Right" class="cls-2" cx="1556" cy="104" r="15"/><path id="V" class="cls-3" d="M1476.24,134l-70.39,198.86L1335.46,134h-33.83l88.28,241.21a11.43,11.43,0,0,0,1.42,2.72,17.36,17.36,0,0,0,13.49,7.25h.6a18.48,18.48,0,0,0,17.94-13.46c.13-.45.27-.9.43-1.34L1509.26,134Z" transform="translate(0)"/><path class="cls-3" d="M1882.62,385.42H1869.3L1844,323.7H1705.91l-24,61.72h-13.32l92.8-257.08q4-11.09,12-11.1t12,11.1ZM1840,311.27l-67.49-175.38-61.72,175.38Z" transform="translate(0)"/><path class="cls-3" d="M2090.16,385.42h-126.1q-3.56,0-6.44-3.55a12.92,12.92,0,0,1-2.89-8.44V117.24h15.1V374.32h120.32Z" transform="translate(0)"/><path class="cls-3" d="M2299.67,385.2,2170,384.75l-6.22-8.44-.89-246.86a17.28,17.28,0,0,0,1.78-6.66q3.55-5.33,7.1-5.33h127.87v12H2178.46v103h115v12h-115V374.1l121.21.44Z" transform="translate(0)"/><path class="cls-3" d="M2577.59,377.65l-2.22,7.55q-2.23,2.22-10.66,2.22L2392.44,141V385.2h-13.76V121.9q0-.88,4.44-6.66,13.32,0,15.54,8.44l164.72,238.87V117.46h14.21Z" transform="translate(0)"/><path class="cls-3" d="M2811.55,385.42q-47.52,0-73.93-6.22t-54.83-31.08q-44.4-39.07-44.4-96.35,0-53.28,40-93.68t92.8-40.4l40.4-.44v11.1q-73.26,0-116.77,33.3t-43.51,90.58q0,48.85,39.52,85t92.35,36.19l28.42.89Z" transform="translate(0)"/><path class="cls-3" d="M3040.18,385.2l-129.65-.44-6.22-8.44-.89-246.86a17.28,17.28,0,0,0,1.78-6.66q3.55-5.33,7.1-5.33h127.87v12H2919v103h115v12H2919V374.1l121.21.44Z" transform="translate(0)"/></g><g id="Layer_1" data-name="Layer 1"><rect class="cls-3" width="500" height="500"/><circle id="Ring-2" data-name="Ring" class="cls-4" cx="250.5" cy="244.5" r="208.5"/><circle id="Electron_Top_Left-2" data-name="Electron Top Left" class="cls-5" cx="102" cy="98" r="15"/><circle id="Electron_Bottom_Left-2" data-name="Electron Bottom Left" class="cls-5" cx="102" cy="390" r="15"/><circle id="Electron_Bottom_Right-2" data-name="Electron Bottom Right" class="cls-5" cx="398" cy="390" r="15"/><circle id="Electron_Top_Right-2" data-name="Electron Top Right" class="cls-5" cx="399" cy="98" r="15"/><path id="V-2" data-name="V" class="cls-6" d="M319.24,128,248.85,326.86,178.46,128H144.62L232.9,369.21a11.43,11.43,0,0,0,1.42,2.72,17.36,17.36,0,0,0,13.49,7.25h.6a18.48,18.48,0,0,0,17.94-13.46c.13-.45.27-.9.43-1.34L352.26,128Z" transform="translate(0)"/></g><g id="Layer_2" data-name="Layer 2"><circle id="Ring-3" data-name="Ring" class="cls-1" cx="900.5" cy="250.5" r="208.5"/><circle id="Electron_Top_Left-3" data-name="Electron Top Left" class="cls-2" cx="754" cy="104" r="15"/><circle id="Electron_Bottom_Left-3" data-name="Electron Bottom Left" class="cls-2" cx="752" cy="396" r="15"/><circle id="Electron_Bottom_Right-3" data-name="Electron Bottom Right" class="cls-2" cx="1046" cy="398" r="15"/><circle id="Electron_Top_Right-3" data-name="Electron Top Right" class="cls-2" cx="1049" cy="104" r="15"/><path id="V-3" data-name="V" class="cls-3" d="M969.24,134,898.85,332.86,828.46,134H794.62L882.9,375.21a11.43,11.43,0,0,0,1.42,2.72,17.36,17.36,0,0,0,13.49,7.25h.6a18.48,18.48,0,0,0,17.94-13.46c.13-.45.27-.9.43-1.34L1002.26,134Z" transform="translate(0)"/></g><g id="Layer_5" data-name="Layer 5"><path class="cls-6" d="M3451.38,694.85a82.06,82.06,0,0,0,.81-100.73,10.83,10.83,0,0,0-14.43-14.63,82.07,82.07,0,0,0-101.17-.22,10.83,10.83,0,0,0-14.24,14.24,82.08,82.08,0,0,0-.58,100.15A10.83,10.83,0,0,0,3336,708.21a82.06,82.06,0,0,0,101,.8,10.83,10.83,0,0,0,14.34-14.15Zm-109.7,7.31a10.83,10.83,0,0,0-13.75-14,73.66,73.66,0,0,1,.39-88.82,10.83,10.83,0,0,0,14-14,73.65,73.65,0,0,1,89.92.45,10.83,10.83,0,0,0,13.63,13.81,73.65,73.65,0,0,1-.47,89.52,10.83,10.83,0,0,0-14.14,14,73.66,73.66,0,0,1-89.62-.83Z" transform="translate(0)"/><path class="cls-6" d="M3381,691.59a6.49,6.49,0,0,0,5,2.71h.22a6.9,6.9,0,0,0,6.71-5c0-.17.1-.34.16-.5l31.94-88.34h-12.34l-26.31,74.32-26.31-74.32h-12.64l33,90.14A4.27,4.27,0,0,0,3381,691.59Z" transform="translate(0)"/><path class="cls-6" d="M3498.55,671.33h51.6l9.46,23.06h5l-36.34-96.07q-1.49-4.15-4.48-4.15t-4.48,4.15l-34.68,96.07h5Zm24.89-70.19,25.22,65.54h-48.29Z" transform="translate(0)"/><path class="cls-6" d="M3595,694.39h47.12v-4.15h-45V594.17h-5.64v95.74a4.83,4.83,0,0,0,1.08,3.15A3.08,3.08,0,0,0,3595,694.39Z" transform="translate(0)"/><path class="cls-6" d="M3672,694.14l48.45.17v-4l-45.3-.17V641.71h43v-4.48h-43v-38.5h45.3v-4.48h-47.79q-1.33,0-2.65,2a6.46,6.46,0,0,1-.66,2.49l.33,92.26Z" transform="translate(0)"/><path class="cls-6" d="M3755.11,603l64.38,92.09q3.15,0,4-.83l.83-2.82V594.25H3819v91.59l-61.56-89.27q-.83-3.15-5.81-3.15a10.2,10.2,0,0,0-1.66,2.49v98.4h5.14Z" transform="translate(0)"/><path class="cls-6" d="M3863.62,680.45q10.62,9.29,20.49,11.62t27.63,2.32v-4.15l-10.62-.33a49.47,49.47,0,0,1-34.51-13.52q-14.77-13.52-14.77-31.78,0-21.4,16.26-33.85t43.64-12.44v-4.15l-15.1.17q-19.75,0-34.68,15.1t-14.93,35Q3847,665.85,3863.62,680.45Z" transform="translate(0)"/><path class="cls-6" d="M3948.73,694.14l48.45.17v-4l-45.3-.17V641.71h43v-4.48h-43v-38.5h45.3v-4.48H3949.4q-1.33,0-2.65,2a6.46,6.46,0,0,1-.66,2.49l.33,92.26Z" transform="translate(0)"/></g><g id="Layer_4" data-name="Layer 4"><path class="cls-6" d="M3599.69,386.66a219.59,219.59,0,0,0,2.16-269.54A29,29,0,0,0,3563.23,78a219.62,219.62,0,0,0-270.73-.59,29,29,0,0,0-38.12,38.12,219.63,219.63,0,0,0-1.54,268A29,29,0,0,0,3291,422.4a219.59,219.59,0,0,0,270.33,2.13,29,29,0,0,0,38.38-37.87Zm-293.55,19.55a29,29,0,0,0-36.8-37.55,197.09,197.09,0,0,1,1-237.68A29,29,0,0,0,3308,93.38a197.07,197.07,0,0,1,240.6,1.2,29,29,0,0,0,36.47,37,197.07,197.07,0,0,1-1.26,239.55A29,29,0,0,0,3546,408.44a197.1,197.1,0,0,1-239.81-2.23Z" transform="translate(0)"/><path class="cls-6" d="M3411.32,377.92a17.36,17.36,0,0,0,13.49,7.25h.6a18.48,18.48,0,0,0,17.94-13.46c.13-.45.27-.9.43-1.34L3529.26,134h-33l-70.39,198.86L3355.46,134h-33.83l88.28,241.21A11.43,11.43,0,0,0,3411.32,377.92Z" transform="translate(0)"/><path class="cls-6" d="M3725.91,323.7H3864l25.31,61.72h13.32l-97.24-257.08q-4-11.09-12-11.1t-12,11.1l-92.8,257.08h13.32Zm66.6-187.81L3860,311.27h-129.2Z" transform="translate(0)"/><path class="cls-6" d="M3984.07,385.42h126.1v-11.1H3989.84V117.24h-15.1V373.43a12.92,12.92,0,0,0,2.89,8.44Q3980.51,385.42,3984.07,385.42Z" transform="translate(0)"/><path class="cls-6" d="M4190,384.75l129.65.44V374.54l-121.21-.44V244.45h115v-12h-115v-103h121.21v-12H4191.8q-3.56,0-7.1,5.33a17.28,17.28,0,0,1-1.78,6.66l.89,246.86Z" transform="translate(0)"/><path class="cls-6" d="M4412.44,141l172.27,246.42q8.43,0,10.66-2.22l2.22-7.55V117.46h-14.21V362.55L4418.65,123.68q-2.23-8.43-15.54-8.44-4.44,5.78-4.44,6.66V385.2h13.76Z" transform="translate(0)"/><path class="cls-6" d="M4702.79,348.12q28.41,24.87,54.83,31.08t73.93,6.22v-11.1l-28.42-.89q-52.84,0-92.35-36.19t-39.52-85q0-57.28,43.51-90.58t116.77-33.3v-11.1l-40.4.44q-52.84,0-92.8,40.4t-40,93.68Q4658.39,309,4702.79,348.12Z" transform="translate(0)"/><path class="cls-6" d="M4930.54,384.75l129.65.44V374.54L4939,374.1V244.45h115v-12H4939v-103h121.21v-12H4932.31q-3.56,0-7.1,5.33a17.28,17.28,0,0,1-1.78,6.66l.89,246.86Z" transform="translate(0)"/></g></svg>