<?xml version="1.0" encoding="utf-8"?>
<!-- Generator: Adobe Illustrator 22.1.0, SVG Export Plug-In . SVG Version: 6.00 Build 0)  -->
<svg version="1.1" id="Layer_1" xmlns="http://www.w3.org/2000/svg" xmlns:xlink="http://www.w3.org/1999/xlink" x="0px" y="0px"
	 viewBox="0 0 1968.2 499.1" style="enable-background:new 0 0 1968.2 499.1;" xml:space="preserve">
<style type="text/css">
	.st0{fill:none;stroke:#853963;stroke-width:22;stroke-miterlimit:10;}
	.st1{fill:#853963;stroke:#853963;stroke-width:28;stroke-miterlimit:10;}
	.st2{fill:#853963;}
	.st3{fill:#FFFFFF;}
</style>
<g id="WhiteTransperant_Large">
	<path class="st3" d="M413.8,386.7c62.3-78.8,63.2-189.8,2.2-269.5c7.2-14.3,1.5-31.7-12.8-39c-8.1-4.1-17.6-4.1-25.8-0.2
		C298,15.6,186.3,15.3,106.6,77.4c-14.7-6.3-31.8,0.4-38.1,15.1c-3.2,7.3-3.2,15.7,0,23C7.2,194.2,6.6,304.2,67,383.5
		c-6.9,14.5-0.7,31.8,13.7,38.6c7.7,3.7,16.6,3.8,24.4,0.2c78.9,62.7,190.4,63.5,270.3,2.1c14.7,6.5,31.8-0.2,38.2-14.9
		C416.9,402.4,416.9,394,413.8,386.7L413.8,386.7z M120.3,406.2c5.6-15-1.9-31.7-16.9-37.3c-6.4-2.4-13.4-2.5-19.9-0.2
		C30.6,298.1,31,201.1,84.5,131c14.9,5.9,31.7-1.4,37.6-16.3c2.7-6.8,2.7-14.5,0-21.3c71.2-54.3,170-53.8,240.6,1.2
		c-5.2,15.1,2.8,31.6,18,36.9c6,2.1,12.5,2.1,18.5,0.1c53.7,71,53.2,169.1-1.3,239.6c-14.9-5.9-31.7,1.3-37.7,16.2
		c-2.7,6.8-2.7,14.3-0.1,21.1C288.9,462,190.5,461.1,120.3,406.2L120.3,406.2z"/>
	<path class="st3" d="M225.4,377.9c3.1,4.4,8.1,7.1,13.5,7.3h0.6c8.3,0.1,15.7-5.4,17.9-13.5c0.1-0.5,0.3-0.9,0.4-1.3L343.4,134h-33
		L240,332.9L169.6,134h-33.8L224,375.2C224.4,376.2,224.8,377.1,225.4,377.9z"/>
	<path class="st3" d="M540,323.7h138.1l25.3,61.7h13.3l-97.2-257.1c-2.7-7.4-6.7-11.1-12-11.1c-5.3,0-9.3,3.7-12,11.1l-92.8,257.1
		H516L540,323.7z M606.6,135.9l67.5,175.4H544.9L606.6,135.9z"/>
	<path class="st3" d="M798.2,385.4h126.1v-11.1H804V117.2h-15.1v256.2c-0.1,3.1,1,6.1,2.9,8.4C793.7,384.2,795.8,385.4,798.2,385.4z
		"/>
	<path class="st3" d="M1004.1,384.8l129.6,0.4v-10.6l-121.2-0.4V244.4h115v-12h-115v-103h121.2v-12h-127.9c-2.4,0-4.7,1.8-7.1,5.3
		c-0.1,2.3-0.7,4.6-1.8,6.7l0.9,246.9L1004.1,384.8z"/>
	<path class="st3" d="M1226.6,141l172.3,246.4c5.6,0,9.2-0.7,10.7-2.2l2.2-7.5V117.5h-14.2v245.1l-164.7-238.9
		c-1.5-5.6-6.7-8.4-15.5-8.4c-3,3.9-4.4,6.1-4.4,6.7v263.3h13.8L1226.6,141z"/>
	<path class="st3" d="M1516.9,348.1c18.9,16.6,37.2,26.9,54.8,31.1c17.6,4.1,42.3,6.2,73.9,6.2v-11.1l-28.4-0.9
		c-35.2,0-66-12.1-92.4-36.2c-26.3-24.1-39.5-52.5-39.5-85c0-38.2,14.5-68.4,43.5-90.6c29-22.2,67.9-33.3,116.8-33.3v-11.1
		l-40.4,0.4c-35.2,0-66.2,13.5-92.8,40.4c-26.6,26.9-40,58.2-40,93.7C1472.5,289.9,1487.3,322,1516.9,348.1z"/>
	<path class="st3" d="M1744.7,384.8l129.6,0.4v-10.6l-121.2-0.4V244.4h115v-12h-115v-103h121.2v-12h-127.9c-2.4,0-4.7,1.8-7.1,5.3
		c-0.1,2.3-0.7,4.6-1.8,6.7l0.9,246.9L1744.7,384.8z"/>
</g>
</svg>
