<svg xmlns="http://www.w3.org/2000/svg" viewBox="0 0 5060.18 726">
    <defs>
        <style>
        .cls-6 {
            fill: #fff;
        }
</style>
    </defs>
    <title>ValenceLogo</title>
    <g id="Layer_5" data-name="Layer 5">
        <path class="cls-6" d="M3451.38,694.85a82.06,82.06,0,0,0,.81-100.73,10.83,10.83,0,0,0-14.43-14.63,82.07,82.07,0,0,0-101.17-.22,10.83,10.83,0,0,0-14.24,14.24,82.08,82.08,0,0,0-.58,100.15A10.83,10.83,0,0,0,3336,708.21a82.06,82.06,0,0,0,101,.8,10.83,10.83,0,0,0,14.34-14.15Zm-109.7,7.31a10.83,10.83,0,0,0-13.75-14,73.66,73.66,0,0,1,.39-88.82,10.83,10.83,0,0,0,14-14,73.65,73.65,0,0,1,89.92.45,10.83,10.83,0,0,0,13.63,13.81,73.65,73.65,0,0,1-.47,89.52,10.83,10.83,0,0,0-14.14,14,73.66,73.66,0,0,1-89.62-.83Z" transform="translate(0)"/>
        <path class="cls-6" d="M3381,691.59a6.49,6.49,0,0,0,5,2.71h.22a6.9,6.9,0,0,0,6.71-5c0-.17.1-.34.16-.5l31.94-88.34h-12.34l-26.31,74.32-26.31-74.32h-12.64l33,90.14A4.27,4.27,0,0,0,3381,691.59Z" transform="translate(0)"/>
        <path class="cls-6" d="M3498.55,671.33h51.6l9.46,23.06h5l-36.34-96.07q-1.49-4.15-4.48-4.15t-4.48,4.15l-34.68,96.07h5Zm24.89-70.19,25.22,65.54h-48.29Z" transform="translate(0)"/>
        <path class="cls-6" d="M3595,694.39h47.12v-4.15h-45V594.17h-5.64v95.74a4.83,4.83,0,0,0,1.08,3.15A3.08,3.08,0,0,0,3595,694.39Z" transform="translate(0)"/>
        <path class="cls-6" d="M3672,694.14l48.45.17v-4l-45.3-.17V641.71h43v-4.48h-43v-38.5h45.3v-4.48h-47.79q-1.33,0-2.65,2a6.46,6.46,0,0,1-.66,2.49l.33,92.26Z" transform="translate(0)"/>
        <path class="cls-6" d="M3755.11,603l64.38,92.09q3.15,0,4-.83l.83-2.82V594.25H3819v91.59l-61.56-89.27q-.83-3.15-5.81-3.15a10.2,10.2,0,0,0-1.66,2.49v98.4h5.14Z" transform="translate(0)"/>
        <path class="cls-6" d="M3863.62,680.45q10.62,9.29,20.49,11.62t27.63,2.32v-4.15l-10.62-.33a49.47,49.47,0,0,1-34.51-13.52q-14.77-13.52-14.77-31.78,0-21.4,16.26-33.85t43.64-12.44v-4.15l-15.1.17q-19.75,0-34.68,15.1t-14.93,35Q3847,665.85,3863.62,680.45Z" transform="translate(0)"/>
        <path class="cls-6" d="M3948.73,694.14l48.45.17v-4l-45.3-.17V641.71h43v-4.48h-43v-38.5h45.3v-4.48H3949.4q-1.33,0-2.65,2a6.46,6.46,0,0,1-.66,2.49l.33,92.26Z" transform="translate(0)"/>
    </g>
</svg>